<?xml version="1.0" encoding="iso-8859-1"?>
<!-- Generator: Adobe Illustrator 19.0.0, SVG Export Plug-In . SVG Version: 6.00 Build 0)  -->
<svg version="1.1" id="Layer_1" xmlns="http://www.w3.org/2000/svg" xmlns:xlink="http://www.w3.org/1999/xlink" x="0px" y="0px"
	 viewBox="0 0 502 502" style="enable-background:new 0 0 502 502;" xml:space="preserve">
<g>
	<g>
		<g>
			<path d="M499.088,79.419l-61-61.285c-1.874-1.882-4.42-2.942-7.076-2.945c-0.004,0-0.008,0-0.012,0
				c-2.652,0-5.195,1.053-7.071,2.929L164.721,277.326l-31.695-31.462c-8.691-8.691-20.284-13.478-32.644-13.478
				c-12.358,0-23.951,4.786-32.643,13.478l-54.262,54.262C4.787,308.817,0,320.41,0,332.769s4.786,23.952,13.478,32.643l107.9,107.9
				c9,9,20.821,13.5,32.643,13.5c11.822,0,23.644-4.5,32.644-13.5l54.262-54.262c8.69-8.691,13.478-20.284,13.478-32.643
				s-4.787-23.952-13.478-32.643l-33.469-33.469L362.27,165.481l25.361,25.362c3.906,3.905,10.236,3.905,14.143,0l23.701-23.701
				c1.875-1.875,2.929-4.419,2.929-7.071s-1.054-5.196-2.929-7.071l-25.362-25.361l13.925-13.925l25.361,25.362
				c3.906,3.905,10.236,3.905,14.143,0l45.53-45.53C502.97,89.646,502.978,83.327,499.088,79.419z M446.47,117.862L421.108,92.5
				c-1.876-1.875-4.419-2.929-7.071-2.929c-2.652,0-5.195,1.054-7.071,2.929L378.9,120.567c-3.905,3.905-3.905,10.237,0,14.142
				l25.361,25.361l-9.559,9.559l-25.361-25.362c-1.876-1.875-4.419-2.929-7.071-2.929c-2.652,0-5.195,1.054-7.071,2.929
				L186.243,313.224c-3.905,3.905-3.905,10.237,0,14.142l40.54,40.541c4.914,4.913,7.62,11.483,7.62,18.5
				c0,7.017-2.706,13.587-7.62,18.501l-54.262,54.262c-10.2,10.202-26.799,10.203-37.001,0l-107.9-107.9
				c-4.914-4.913-7.62-11.483-7.62-18.5c0-7.017,2.706-13.587,7.62-18.501l54.262-54.262c4.913-4.914,11.483-7.62,18.501-7.62
				c7.017,0,13.587,2.706,18.526,7.646l38.793,38.507c3.91,3.881,10.222,3.869,14.116-0.026L430.983,39.347l13.825,13.89
				l-12.88,12.88c-3.905,3.905-3.905,10.237,0,14.143c1.953,1.953,4.512,2.929,7.071,2.929s5.118-0.976,7.071-2.929l12.847-12.847
				l18.956,19.044L446.47,117.862z"/>
			<path d="M87.938,280.854l-39.47,39.471c-7.007,7.007-6.796,18.621,0.471,25.889l91.638,91.637
				c3.721,3.72,8.58,5.591,13.378,5.591c4.573,0,9.091-1.701,12.511-5.12c0,0,0.001,0,0.001-0.001l39.468-39.469
				c3.446-3.446,5.309-8.274,5.109-13.249c-0.189-4.744-2.171-9.233-5.578-12.642l-91.638-91.637
				C106.559,274.058,94.946,273.848,87.938,280.854z M153.756,422.747l-89.713-89.713l36.604-36.604l89.713,89.713L153.756,422.747z
				"/>
		</g>
	</g>
</g>
<g>
</g>
<g>
</g>
<g>
</g>
<g>
</g>
<g>
</g>
<g>
</g>
<g>
</g>
<g>
</g>
<g>
</g>
<g>
</g>
<g>
</g>
<g>
</g>
<g>
</g>
<g>
</g>
<g>
</g>
</svg>
