<?xml version="1.0" encoding="iso-8859-1"?>
<!-- Generator: Adobe Illustrator 18.0.0, SVG Export Plug-In . SVG Version: 6.00 Build 0)  -->
<!DOCTYPE svg PUBLIC "-//W3C//DTD SVG 1.1//EN" "http://www.w3.org/Graphics/SVG/1.1/DTD/svg11.dtd">
<svg version="1.1" id="Capa_1" xmlns="http://www.w3.org/2000/svg" xmlns:xlink="http://www.w3.org/1999/xlink" x="0px" y="0px"
	 viewBox="0 0 54 54" style="enable-background:new 0 0 54 54;" xml:space="preserve">
<g>
	<path d="M0,0v54h54V0H0z M52,52H2V2h50V52z"/>
	<path d="M20.143,49v-2H8.414l15.293-15.293c0.391-0.391,0.391-1.023,0-1.414s-1.023-0.391-1.414,0L7,45.586V33.857H5V49H20.143z"/>
	<path d="M31,24c0.256,0,0.512-0.098,0.707-0.293L47,8.414v11.729h2V5H33.857v2h11.729L30.293,22.293
		c-0.391,0.391-0.391,1.023,0,1.414C30.488,23.902,30.744,24,31,24z"/>
</g>
<g>
</g>
<g>
</g>
<g>
</g>
<g>
</g>
<g>
</g>
<g>
</g>
<g>
</g>
<g>
</g>
<g>
</g>
<g>
</g>
<g>
</g>
<g>
</g>
<g>
</g>
<g>
</g>
<g>
</g>
</svg>
